<svg width="19" height="18" viewBox="0 0 19 18" fill="none" xmlns="http://www.w3.org/2000/svg">
<path d="M1.48103 10.0834H14.5819L8.85835 15.3701C8.40093 15.7926 8.40093 16.4859 8.85835 16.9084C9.31577 17.3309 10.0547 17.3309 10.5121 16.9084L18.2413 9.76926C18.6987 9.34676 18.6987 8.66426 18.2413 8.24176L10.5238 1.09176C10.3047 0.888905 10.0072 0.774902 9.69695 0.774902C9.38671 0.774902 9.08921 0.888905 8.87008 1.09176C8.41266 1.51426 8.41266 2.19676 8.87008 2.61926L14.5819 7.91676H1.48103C0.835956 7.91676 0.308167 8.40426 0.308167 9.0001C0.308167 9.59593 0.835956 10.0834 1.48103 10.0834Z" fill="#37474F"/>
</svg>
